<mxfile host="app.diagrams.net" agent="Mozilla/5.0 (X11; Linux x86_64) AppleWebKit/537.36 (KHTML, like Gecko) Chrome/131.0.0.0 Safari/537.36" version="26.0.6">
  <diagram name="Page-1" id="QcGE9d7ttTyil7eACNjh">
    <mxGraphModel dx="998" dy="553" grid="1" gridSize="10" guides="1" tooltips="1" connect="1" arrows="1" fold="1" page="1" pageScale="1" pageWidth="850" pageHeight="1100" math="0" shadow="0">
      <root>
        <mxCell id="0" />
        <mxCell id="1" parent="0" />
        <mxCell id="U_VN_DRkcYEVZC-WdmxN-3" style="edgeStyle=orthogonalEdgeStyle;rounded=0;orthogonalLoop=1;jettySize=auto;html=1;entryX=0;entryY=0;entryDx=0;entryDy=0;exitX=1;exitY=0;exitDx=0;exitDy=0;curved=1;" edge="1" parent="1" source="U_VN_DRkcYEVZC-WdmxN-1" target="U_VN_DRkcYEVZC-WdmxN-2">
          <mxGeometry relative="1" as="geometry">
            <Array as="points">
              <mxPoint x="347" y="120" />
              <mxPoint x="543" y="120" />
            </Array>
          </mxGeometry>
        </mxCell>
        <mxCell id="U_VN_DRkcYEVZC-WdmxN-1" value="Node A" style="ellipse;whiteSpace=wrap;html=1;aspect=fixed;" vertex="1" parent="1">
          <mxGeometry x="210" y="130" width="160" height="160" as="geometry" />
        </mxCell>
        <mxCell id="U_VN_DRkcYEVZC-WdmxN-2" value="Node B" style="ellipse;whiteSpace=wrap;html=1;aspect=fixed;" vertex="1" parent="1">
          <mxGeometry x="520" y="130" width="160" height="160" as="geometry" />
        </mxCell>
        <mxCell id="U_VN_DRkcYEVZC-WdmxN-4" value="topic" style="text;html=1;align=center;verticalAlign=middle;resizable=0;points=[];autosize=1;strokeColor=none;fillColor=none;" vertex="1" parent="1">
          <mxGeometry x="425" y="90" width="50" height="30" as="geometry" />
        </mxCell>
      </root>
    </mxGraphModel>
  </diagram>
</mxfile>
